<svg width="100" height="100" viewBox="0 0 100 100" fill="none" xmlns="http://www.w3.org/2000/svg">
<g clip-path="url(#clip0_117_18)">
<rect width="100" height="100" fill="white"/>
<rect width="100" height="100" fill="white"/>
<path d="M57.672 26.624H67.336V55.616C67.336 57.8773 66.8667 60.0533 65.928 62.144C64.9893 64.2347 63.7093 66.0693 62.088 67.648C60.4667 69.2267 58.568 70.4853 56.392 71.424C54.2587 72.3627 51.9547 72.832 49.48 72.832C47.048 72.832 44.744 72.3627 42.568 71.424C40.392 70.4853 38.4933 69.2267 36.872 67.648C35.2933 66.0693 34.0347 64.2347 33.096 62.144C32.1573 60.0533 31.688 57.8773 31.688 55.616V26.624H41.352V53.696C41.352 54.976 41.5653 56.192 41.992 57.344C42.4187 58.4533 42.9947 59.456 43.72 60.352C44.4453 61.2053 45.2987 61.888 46.28 62.4C47.304 62.912 48.3707 63.168 49.48 63.168C50.632 63.168 51.6987 62.912 52.68 62.4C53.6613 61.888 54.5147 61.2053 55.24 60.352C56.008 59.456 56.6053 58.4533 57.032 57.344C57.4587 56.192 57.672 54.976 57.672 53.696V26.624Z" fill="black"/>
<rect x="14" y="14" width="72" height="72" stroke="black" stroke-width="8"/>
<g style="mix-blend-mode:difference">
<path d="M0 100L100.009 -0.00879178L150.009 49.9912L50 150L0 100Z" fill="white"/>
</g>
</g>
<defs>
<clipPath id="clip0_117_18">
<rect width="100" height="100" fill="white"/>
</clipPath>
</defs>
</svg>
